<?xml version="1.0" encoding="UTF-8" standalone="no"?>
<!-- Created with Inkscape (http://www.inkscape.org/) -->

<svg
   width="210mm"
   height="297mm"
   viewBox="0 0 210 297"
   version="1.1"
   id="svg1"
   xml:space="preserve"
   inkscape:version="1.3.2 (091e20ef0f, 2023-11-25, custom)"
   sodipodi:docname="logo.svg"
   xmlns:inkscape="http://www.inkscape.org/namespaces/inkscape"
   xmlns:sodipodi="http://sodipodi.sourceforge.net/DTD/sodipodi-0.dtd"
   xmlns="http://www.w3.org/2000/svg"
   xmlns:svg="http://www.w3.org/2000/svg"><sodipodi:namedview
     id="namedview1"
     pagecolor="#ffffff"
     bordercolor="#000000"
     borderopacity="0.25"
     inkscape:showpageshadow="2"
     inkscape:pageopacity="0.0"
     inkscape:pagecheckerboard="0"
     inkscape:deskcolor="#d1d1d1"
     inkscape:document-units="mm"
     inkscape:zoom="0.86877815"
     inkscape:cx="169.77867"
     inkscape:cy="442.00007"
     inkscape:window-width="1920"
     inkscape:window-height="1080"
     inkscape:window-x="0"
     inkscape:window-y="0"
     inkscape:window-maximized="1"
     inkscape:current-layer="layer1" /><defs
     id="defs1" /><g
     inkscape:label="Layer 1"
     inkscape:groupmode="layer"
     id="layer1"
     style="fill:none;stroke:#344657;stroke-width:4;stroke-dasharray:none;stroke-opacity:1"
     transform="translate(17.134508,14.875605)"><circle
       style="fill:#f2fefe;fill-opacity:1;stroke:#344657;stroke-width:7.5;stroke-dasharray:none;stroke-opacity:1"
       id="path1"
       cx="60.775635"
       cy="63.034534"
       r="74.160141" /><path
       id="circle8"
       style="fill:#b6f8f8;fill-opacity:1;stroke:#344657;stroke-width:7.5;stroke-dasharray:none;stroke-opacity:1"
       d="m -13.338369,62.394096 a 74.160141,74.160141 0 0 0 -0.04599,0.64028 74.160141,74.160141 0 0 0 74.159816,74.160334 74.160141,74.160141 0 0 0 74.160333,-74.160334 74.160141,74.160141 0 0 0 -0.0155,-0.64028 z" /><g
       id="g5"
       transform="translate(-50.274235,-74.797223)"
       style="stroke-width:7.5;stroke-dasharray:none"><ellipse
         style="fill:#ffffff;fill-opacity:1;stroke:#344657;stroke-width:7.5;stroke-linejoin:round;stroke-dasharray:none;stroke-opacity:1"
         id="path3"
         cx="153.8089"
         cy="144.21591"
         rx="13.147177"
         ry="12.563595" /><circle
         style="fill:#344657;fill-opacity:1;stroke:none;stroke-width:7.5;stroke-linejoin:round;stroke-dasharray:none;stroke-opacity:1"
         id="ellipse4"
         cx="153.8089"
         cy="144.21591"
         r="4.863627" /></g><path
       id="path2"
       style="fill:#ffffff;fill-opacity:1;stroke:#344657;stroke-width:7.5;stroke-linejoin:round;stroke-dasharray:none;stroke-opacity:1"
       d="m 17.846208,54.260656 v 7.47862 c 0,2.04977 0.0413,4.29148 0.0158,6.46252 9e-5,23.92179 18.972321,43.314174 42.375737,43.314154 23.403379,2e-5 42.375605,-19.392364 42.375695,-43.314154 -0.0121,-1.52398 0.0333,-3.14337 0.0333,-4.49643 l -0.0562,-9.46467 z"
       sodipodi:nodetypes="cccccccc" /><rect
       style="fill:none;fill-opacity:1;stroke:#344657;stroke-width:7;stroke-linecap:round;stroke-linejoin:round;stroke-dasharray:none;stroke-opacity:1"
       id="rect14"
       width="61.310402"
       height="0.54478711"
       x="30.120512"
       y="112.56504" /><g
       id="g15"
       transform="translate(-53.722643,-77.595262)"><path
         style="fill:none;fill-opacity:1;stroke:#344657;stroke-width:7;stroke-linecap:round;stroke-linejoin:round;stroke-dasharray:none;stroke-opacity:1"
         d="m 114.43805,120.95034 c 0.71854,-3.03044 2.02767,-3.83973 -0.18256,-9.47549 -2.94653,-7.51322 3.31649,-9.88785 0.36457,-16.046551 -1.9578,-4.337579 -0.73272,-8.656065 0.70906,-11.084434"
         id="path9"
         sodipodi:nodetypes="cscc" /><path
         style="fill:none;fill-opacity:1;stroke:#344657;stroke-width:7;stroke-linecap:round;stroke-linejoin:round;stroke-dasharray:none;stroke-opacity:1"
         d="m 130.71244,100.49057 c -3.08594,2.79261 -2.85218,6.95009 -0.0807,10.14994 2.11463,3.1929 2.15678,5.78767 0.28229,9.88651"
         id="path14"
         sodipodi:nodetypes="ccc" /><path
         style="fill:none;fill-opacity:1;stroke:#344657;stroke-width:7;stroke-linecap:round;stroke-linejoin:round;stroke-dasharray:none;stroke-opacity:1"
         d="m 98.962423,100.49057 c -3.08594,2.79261 -2.85218,6.95009 -0.0807,10.14994 2.114627,3.1929 2.156777,5.78767 0.28229,9.88651"
         id="path15"
         sodipodi:nodetypes="ccc" /></g></g></svg>
